<svg xmlns="http://www.w3.org/2000/svg" viewBox="0 0 1024 1024">
<defs>
  <linearGradient id="bg" x1="0" y1="0" x2="0" y2="1">
    <stop offset="0" stop-color="#0b4d8f"/>
    <stop offset=".45" stop-color="#07305f"/>
    <stop offset="1" stop-color="#031326"/>
  </linearGradient>
  <linearGradient id="silver" x1="0" y1="0" x2="1" y2="1">
    <stop offset="0" stop-color="#ffffff"/>
    <stop offset=".35" stop-color="#d8dee6"/>
    <stop offset=".68" stop-color="#9aa7b5"/>
    <stop offset="1" stop-color="#f7fbff"/>
  </linearGradient>
  <filter id="shadow"><feDropShadow dx="0" dy="16" stdDeviation="18" flood-color="#000" flood-opacity=".35"/></filter>
</defs>
<rect x="32" y="32" width="960" height="960" rx="210" fill="url(#bg)" stroke="#1786ef" stroke-width="12"/>
<g filter="url(#shadow)" fill="none" stroke="url(#silver)" stroke-linecap="round" stroke-linejoin="round">
  <path d="M96 306h210c54 0 90 17 126 58" stroke-width="34"/>
  <path d="M124 370h175c49 0 87 14 121 49" stroke-width="28"/>
  <path d="M168 432h126c42 0 78 11 111 35" stroke-width="24"/>
  <path d="M928 306H718c-54 0-90 17-126 58" stroke-width="34"/>
  <path d="M900 370H725c-49 0-87 14-121 49" stroke-width="28"/>
  <path d="M856 432H730c-42 0-78 11-111 35" stroke-width="24"/>
</g>
<circle cx="512" cy="382" r="150" fill="#071a31" stroke="url(#silver)" stroke-width="26" filter="url(#shadow)"/>
<g stroke="url(#silver)" stroke-linecap="round">
  <path d="M512 252v25M512 487v25M382 382h25M617 382h25" stroke-width="16"/>
  <path d="M512 382l72-66M512 382l-58-39" stroke-width="18"/>
</g>
<circle cx="512" cy="382" r="13" fill="url(#silver)"/>
<text x="512" y="700" text-anchor="middle" fill="url(#silver)" font-family="Arial,Helvetica,sans-serif" font-weight="700" font-size="190" letter-spacing="10">FDP</text>
<text x="512" y="795" text-anchor="middle" fill="#eef3f9" font-family="Arial,Helvetica,sans-serif" font-size="54" letter-spacing="12">FLIGHT DUTY PRO</text>
<text x="512" y="865" text-anchor="middle" fill="#aebed0" font-family="Arial,Helvetica,sans-serif" font-size="30" letter-spacing="10">FTL CALCULATOR</text>
</svg>